<?xml version="1.0" encoding="UTF-8"?>
<!DOCTYPE svg PUBLIC "-//W3C//DTD SVG 1.1//EN" "http://www.w3.org/Graphics/SVG/1.1/DTD/svg11.dtd">
<svg version="1.1" xmlns="http://www.w3.org/2000/svg" xmlns:xlink="http://www.w3.org/1999/xlink" x="0" y="0" width="750" height="157" viewBox="0, 0, 750, 157">
  <g id="OBJECTS">
    <path d="M24.889,12.542 C24.889,10.558 26.497,8.95 28.481,8.95 C30.464,8.95 32.072,10.558 32.072,12.542 C32.072,14.525 30.464,16.133 28.481,16.133 C26.497,16.133 24.889,14.525 24.889,12.542" fill="#00B234"/>
    <path d="M629.898,153.541 C629.898,151.558 631.505,149.95 633.49,149.95 C635.472,149.95 637.081,151.558 637.081,153.541 C637.081,155.525 635.472,157.133 633.49,157.133 C631.505,157.133 629.898,155.525 629.898,153.541" fill="#00B234"/>
    <path d="M638.986,162.63 C638.986,160.647 640.593,159.038 642.577,159.038 C644.561,159.038 646.169,160.647 646.169,162.63 C646.169,164.613 644.561,166.222 642.577,166.222 C640.593,166.222 638.986,164.613 638.986,162.63" fill="#00B234"/>
    <path d="M647.595,74.871 C647.595,72.888 649.202,71.279 651.187,71.279 C653.17,71.279 654.778,72.888 654.778,74.871 C654.778,76.854 653.17,78.463 651.187,78.463 C649.202,78.463 647.595,76.854 647.595,74.871" fill="#00B234"/>
    <path d="M656.761,84.038 C656.761,82.055 658.369,80.446 660.353,80.446 C662.336,80.446 663.945,82.055 663.945,84.038 C663.945,86.021 662.336,87.63 660.353,87.63 C658.369,87.63 656.761,86.021 656.761,84.038" fill="#00B234"/>
    <path d="M675.249,59.055 C675.249,57.072 676.857,55.464 678.841,55.464 C680.824,55.464 682.433,57.072 682.433,59.055 C682.433,61.038 680.824,62.647 678.841,62.647 C676.857,62.647 675.249,61.038 675.249,59.055" fill="#00B234"/>
    <path d="M721.583,39.639 C721.583,37.655 723.19,36.047 725.174,36.047 C727.158,36.047 728.766,37.655 728.766,39.639 C728.766,41.622 727.158,43.23 725.174,43.23 C723.19,43.23 721.583,41.622 721.583,39.639" fill="#00B234"/>
    <path d="M730.214,48.27 C730.214,46.287 731.822,44.679 733.806,44.679 C735.789,44.679 737.398,46.287 737.398,48.27 C737.398,50.254 735.789,51.862 733.806,51.862 C731.822,51.862 730.214,50.254 730.214,48.27" fill="#00B234"/>
    <path d="M704.964,3.187 C704.964,1.203 706.572,-0.405 708.556,-0.405 C710.539,-0.405 712.148,1.203 712.148,3.187 C712.148,5.17 710.539,6.779 708.556,6.779 C706.572,6.779 704.964,5.17 704.964,3.187" fill="#00B234"/>
    <path d="M123.812,-33.8 L135.642,-33.8" fill-opacity="0" stroke="#00B885" stroke-width="1" stroke-linecap="round" stroke-linejoin="round"/>
    <path d="M634.792,128.104 L649.242,128.104 L649.242,114.042" fill-opacity="0" stroke="#00B885" stroke-width="1" stroke-linecap="round" stroke-linejoin="round"/>
    <path d="M59.541,48.986 L45.09,48.986 L45.09,63.049" fill-opacity="0" stroke="#00B885" stroke-width="1" stroke-linecap="round" stroke-linejoin="round"/>
    <path d="M95.838,-28.376 L81.388,-28.376 L81.388,-14.313" fill-opacity="0" stroke="#00B885" stroke-width="1" stroke-linecap="round" stroke-linejoin="round"/>
    <path d="M618.191,54.71 L611.008,54.71 L607.417,60.931 L611.008,67.151 L618.191,67.151 L621.783,60.931 L618.191,54.71 z" fill-opacity="0" stroke="#00B885" stroke-width="1" stroke-linecap="round" stroke-linejoin="round"/>
    <path d="M618.191,67.151 L611.008,67.151 L607.417,73.372 L611.008,79.592 L618.191,79.592 L621.783,73.372 L618.191,67.151 z" fill-opacity="0" stroke="#00B885" stroke-width="1" stroke-linecap="round" stroke-linejoin="round"/>
    <path d="M93.83,7.544 L93.83,0.361 L87.609,-3.23 L81.389,0.361 L81.389,7.544 L87.609,11.136 L93.83,7.544 z" fill-opacity="0" stroke="#00B885" stroke-width="1" stroke-linecap="round" stroke-linejoin="round"/>
    <path d="M87.609,-3.538 L87.609,-10.721 L81.388,-14.313 L75.168,-10.721 L75.168,-3.538 L81.388,0.053 L87.609,-3.538 z" fill-opacity="0" stroke="#00B885" stroke-width="1" stroke-linecap="round" stroke-linejoin="round"/>
    <path d="M720.527,140.898 L720.335,146.292 L714.941,146.484 L698.759,130.302 L698.952,124.909 L704.345,124.716 L720.527,140.898 z" fill-opacity="0" stroke="#00CA3A" stroke-width="0.75"/>
    <path d="M27.773,48.01 L27.581,53.404 L22.187,53.596 L6.005,37.414 L6.198,32.021 L11.591,31.828 L27.773,48.01 z" fill-opacity="0" stroke="#00CA3A" stroke-width="0.75"/>
    <path d="M749.884,-34.538 L749.692,-29.144 L744.298,-28.952 L728.116,-45.134 L728.309,-50.527 L733.702,-50.72 L749.884,-34.538 z" fill-opacity="0" stroke="#00CA3A" stroke-width="0.75"/>
    <path d="M749.884,32.498 L749.692,37.892 L744.298,38.084 L728.116,21.902 L728.309,16.509 L733.702,16.316 L749.884,32.498 z" fill-opacity="0" stroke="#00CA3A" stroke-width="0.75"/>
    <path d="M744.801,165.932 L744.609,171.326 L739.215,171.518 L723.033,155.336 L723.226,149.943 L728.619,149.75 L744.801,165.932 z" fill-opacity="0" stroke="#00CA3A" stroke-width="0.75"/>
    <path d="M636.757,176.494 L636.566,181.888 L631.171,182.08 L614.989,165.897 L615.182,160.504 L620.575,160.311 L636.757,176.494 z" fill-opacity="0" stroke="#00CA3A" stroke-width="0.75"/>
    <path d="M29.833,150.836 L29.641,156.23 L24.247,156.422 L8.065,140.24 L8.258,134.847 L13.651,134.654 L29.833,150.836 z" fill-opacity="0" stroke="#00CA3A" stroke-width="0.75"/>
    <path d="M736.127,109.574 L735.935,114.968 L730.541,115.16 L714.359,98.978 L714.551,93.585 L719.945,93.392 L736.127,109.574 z" fill-opacity="0" stroke="#00CA3A" stroke-width="0.75"/>
    <path d="M55.672,38.858 L55.48,44.252 L50.086,44.444 L33.904,28.262 L34.097,22.869 L39.49,22.676 L55.672,38.858 z" fill-opacity="0" stroke="#00CA3A" stroke-width="0.75"/>
    <path d="M683.14,103.302 L683.056,105.656 C683.039,106.132 682.658,106.514 682.181,106.531 L679.827,106.615 C679.576,106.623 679.331,106.528 679.154,106.35 L668.932,96.128 C668.753,95.949 668.658,95.705 668.666,95.453 L668.75,93.1 C668.768,92.624 669.149,92.242 669.625,92.225 L671.979,92.141 C672.231,92.132 672.475,92.229 672.653,92.406 L682.874,102.628 C683.053,102.806 683.149,103.05 683.14,103.302" fill="#00B885"/>
    <path d="M713.276,108.201 L713.192,110.555 C713.175,111.03 712.794,111.412 712.317,111.43 L709.963,111.514 C709.712,111.522 709.467,111.426 709.29,111.248 L699.068,101.026 C698.889,100.848 698.794,100.604 698.802,100.352 L698.886,97.998 C698.904,97.522 699.286,97.14 699.761,97.124 L702.115,97.04 C702.367,97.031 702.611,97.127 702.789,97.305 L713.01,107.526 C713.189,107.705 713.285,107.949 713.276,108.201" fill="#00B885"/>
    <path d="M61.058,28.361 L60.974,30.715 C60.957,31.191 60.576,31.572 60.1,31.59 L57.745,31.674 C57.494,31.682 57.25,31.587 57.072,31.408 L46.85,21.187 C46.672,21.008 46.576,20.764 46.585,20.513 L46.669,18.159 C46.686,17.683 47.067,17.301 47.543,17.284 L49.897,17.2 C50.149,17.191 50.393,17.287 50.571,17.465 L60.793,27.687 C60.971,27.865 61.067,28.109 61.058,28.361" fill="#00B885"/>
    <path d="M5.141,-39.295 L44.848,0.412 L44.848,15.372 L68.235,38.759" fill-opacity="0" stroke="#00B885" stroke-width="1" stroke-linecap="round" stroke-linejoin="round"/>
    <path d="M5.141,-11.238 L28.529,12.15 L28.529,32.039 L45.476,48.986" fill-opacity="0" stroke="#00B885" stroke-width="1" stroke-linecap="round" stroke-linejoin="round"/>
    <path d="M689.336,-1.872 L703.786,-1.872 L703.786,-15.935" fill-opacity="0" stroke="#00B885" stroke-width="1" stroke-linecap="round" stroke-linejoin="round"/>
    <path d="M743.736,58.353 L720.347,34.964 L720.347,15.076 L703.4,-1.872" fill-opacity="0" stroke="#00B885" stroke-width="1" stroke-linecap="round" stroke-linejoin="round"/>
    <path d="M64.39,-25.156 C64.39,-26.552 65.521,-27.683 66.917,-27.683 C68.313,-27.683 69.445,-26.552 69.445,-25.156 C69.445,-23.76 68.313,-22.629 66.917,-22.629 C65.521,-22.629 64.39,-23.76 64.39,-25.156 z" fill-opacity="0" stroke="#00B885" stroke-width="1" stroke-linecap="round" stroke-linejoin="round"/>
    <path d="M135.641,-33.8 C135.641,-35.196 136.773,-36.328 138.168,-36.328 C139.564,-36.328 140.696,-35.196 140.696,-33.8 C140.696,-32.404 139.564,-31.273 138.168,-31.273 C136.773,-31.273 135.641,-32.404 135.641,-33.8 z" fill-opacity="0" stroke="#00B885" stroke-width="1" stroke-linecap="round" stroke-linejoin="round"/>
    <path d="M39.96,158.747 L39.96,144.297 L54.023,144.297" fill-opacity="0" stroke="#00B885" stroke-width="1" stroke-linecap="round" stroke-linejoin="round"/>
    <path d="M33.836,169.635 L33.836,162.451 L40.057,158.861 L46.277,162.451 L46.277,169.635 L40.057,173.227 L33.836,169.635 z" fill-opacity="0" stroke="#00B885" stroke-width="1" stroke-linecap="round" stroke-linejoin="round"/>
    <path d="M46.278,169.635 L46.278,162.451 L52.499,158.861 L58.72,162.451 L58.72,169.635 L52.499,173.227 L46.278,169.635 z" fill-opacity="0" stroke="#00B885" stroke-width="1" stroke-linecap="round" stroke-linejoin="round"/>
    <path d="M-25.299,95.539 L3.638,124.476 L20.139,124.476 L39.96,144.297" fill-opacity="0" stroke="#00B885" stroke-width="1" stroke-linecap="round" stroke-linejoin="round"/>
    <path d="M56.551,141.77 C55.155,141.77 54.023,142.902 54.023,144.297 C54.023,145.694 55.155,146.826 56.551,146.826 C57.947,146.826 59.078,145.694 59.078,144.297 C59.078,142.902 57.947,141.77 56.551,141.77 z" fill-opacity="0" stroke="#00B885" stroke-width="1" stroke-linecap="round" stroke-linejoin="round"/>
    <path d="M618.458,152.477 C618.458,151.081 619.59,149.95 620.985,149.95 C622.381,149.95 623.513,151.081 623.513,152.477 C623.513,153.873 622.381,155.004 620.985,155.004 C619.59,155.004 618.458,153.873 618.458,152.477 z" fill-opacity="0" stroke="#00B885" stroke-width="1" stroke-linecap="round" stroke-linejoin="round"/>
    <path d="M615.615,124.46 C615.615,123.064 616.747,121.933 618.143,121.933 C619.539,121.933 620.671,123.064 620.671,124.46 C620.671,125.856 619.539,126.987 618.143,126.987 C616.747,126.987 615.615,125.856 615.615,124.46 z" fill-opacity="0" stroke="#00B885" stroke-width="1" stroke-linecap="round" stroke-linejoin="round"/>
    <path d="M629.736,128.105 C629.736,126.709 630.868,125.577 632.264,125.577 C633.66,125.577 634.792,126.709 634.792,128.105 C634.792,129.501 633.66,130.632 632.264,130.632 C630.868,130.632 629.736,129.501 629.736,128.105 z" fill-opacity="0" stroke="#00B885" stroke-width="1" stroke-linecap="round" stroke-linejoin="round"/>
    <path d="M646.714,111.514 C646.714,110.118 647.846,108.987 649.242,108.987 C650.638,108.987 651.77,110.118 651.77,111.514 C651.77,112.91 650.638,114.041 649.242,114.041 C647.846,114.041 646.714,112.91 646.714,111.514 z" fill-opacity="0" stroke="#00B885" stroke-width="1" stroke-linecap="round" stroke-linejoin="round"/>
    <path d="M703.21,-37.308 C703.21,-38.704 704.342,-39.836 705.737,-39.836 C707.134,-39.836 708.266,-38.704 708.266,-37.308 C708.266,-35.912 707.134,-34.781 705.737,-34.781 C704.342,-34.781 703.21,-35.912 703.21,-37.308 z" fill-opacity="0" stroke="#00B885" stroke-width="1" stroke-linecap="round" stroke-linejoin="round"/>
    <path d="M720.188,-53.951 C720.188,-55.347 721.319,-56.478 722.714,-56.478 C724.112,-56.478 725.243,-55.347 725.243,-53.951 C725.243,-52.555 724.112,-51.423 722.714,-51.423 C721.319,-51.423 720.188,-52.555 720.188,-53.951 z" fill-opacity="0" stroke="#00B885" stroke-width="1" stroke-linecap="round" stroke-linejoin="round"/>
    <path d="M701.259,-18.784 C701.259,-20.18 702.391,-21.311 703.786,-21.311 C705.183,-21.311 706.314,-20.18 706.314,-18.784 C706.314,-17.388 705.183,-16.256 703.786,-16.256 C702.391,-16.256 701.259,-17.388 701.259,-18.784 z" fill-opacity="0" stroke="#00B885" stroke-width="1" stroke-linecap="round" stroke-linejoin="round"/>
    <path d="M684.281,-1.872 C684.281,-3.268 685.413,-4.399 686.808,-4.399 C688.205,-4.399 689.336,-3.268 689.336,-1.872 C689.336,-0.476 688.205,0.656 686.808,0.656 C685.413,0.656 684.281,-0.476 684.281,-1.872 z" fill-opacity="0" stroke="#00B885" stroke-width="1" stroke-linecap="round" stroke-linejoin="round"/>
    <path d="M638.761,4.618 C638.761,3.222 639.893,2.091 641.288,2.091 C642.685,2.091 643.816,3.222 643.816,4.618 C643.816,6.014 642.685,7.145 641.288,7.145 C639.893,7.145 638.761,6.014 638.761,4.618 z" fill-opacity="0" stroke="#00B885" stroke-width="1" stroke-linecap="round" stroke-linejoin="round"/>
    <path d="M693.747,68.752 C693.747,67.356 694.879,66.225 696.274,66.225 C697.671,66.225 698.803,67.356 698.803,68.752 C698.803,70.148 697.671,71.279 696.274,71.279 C694.879,71.279 693.747,70.148 693.747,68.752 z" fill-opacity="0" stroke="#00B885" stroke-width="1" stroke-linecap="round" stroke-linejoin="round"/>
    <path d="M668.593,28.248 C668.593,26.852 669.725,25.721 671.12,25.721 C672.517,25.721 673.648,26.852 673.648,28.248 C673.648,29.644 672.517,30.776 671.12,30.776 C669.725,30.776 668.593,29.644 668.593,28.248 z" fill-opacity="0" stroke="#00B885" stroke-width="1" stroke-linecap="round" stroke-linejoin="round"/>
    <path d="M634.412,43.967 C634.412,42.571 635.544,41.44 636.939,41.44 C638.335,41.44 639.467,42.571 639.467,43.967 C639.467,45.363 638.335,46.494 636.939,46.494 C635.544,46.494 634.412,45.363 634.412,43.967 z" fill-opacity="0" stroke="#00B885" stroke-width="1" stroke-linecap="round" stroke-linejoin="round"/>
    <path d="M621.783,21.209 C621.783,19.813 622.915,18.681 624.31,18.681 C625.707,18.681 626.839,19.813 626.839,21.209 C626.839,22.605 625.707,23.736 624.31,23.736 C622.915,23.736 621.783,22.605 621.783,21.209 z" fill-opacity="0" stroke="#00B885" stroke-width="1" stroke-linecap="round" stroke-linejoin="round"/>
    <path d="M67.572,40.443 C67.572,39.047 68.704,37.916 70.1,37.916 C71.495,37.916 72.627,39.047 72.627,40.443 C72.627,41.839 71.495,42.971 70.1,42.971 C68.704,42.971 67.572,41.839 67.572,40.443 z" fill-opacity="0" stroke="#00B885" stroke-width="1" stroke-linecap="round" stroke-linejoin="round"/>
    <path d="M42.949,65.576 C42.949,64.18 44.081,63.049 45.476,63.049 C46.872,63.049 48.004,64.18 48.004,65.576 C48.004,66.972 46.872,68.104 45.476,68.104 C44.081,68.104 42.949,66.972 42.949,65.576 z" fill-opacity="0" stroke="#00B885" stroke-width="1" stroke-linecap="round" stroke-linejoin="round"/>
    <path d="M59.54,48.986 C59.54,47.59 60.672,46.458 62.068,46.458 C63.464,46.458 64.595,47.59 64.595,48.986 C64.595,50.382 63.464,51.513 62.068,51.513 C60.672,51.513 59.54,50.382 59.54,48.986 z" fill-opacity="0" stroke="#00B885" stroke-width="1" stroke-linecap="round" stroke-linejoin="round"/>
    <path d="M99.24,-28.375 C99.24,-29.214 99.92,-29.894 100.759,-29.894 C101.597,-29.894 102.277,-29.214 102.277,-28.375 C102.277,-27.537 101.597,-26.857 100.759,-26.857 C99.92,-26.857 99.24,-27.537 99.24,-28.375" fill="#00B885"/>
    <path d="M104.373,-28.375 C104.373,-29.214 105.053,-29.894 105.891,-29.894 C106.729,-29.894 107.409,-29.214 107.409,-28.375 C107.409,-27.537 106.729,-26.857 105.891,-26.857 C105.053,-26.857 104.373,-27.537 104.373,-28.375" fill="#00B885"/>
    <path d="M109.505,-28.375 C109.505,-29.214 110.185,-29.894 111.024,-29.894 C111.862,-29.894 112.542,-29.214 112.542,-28.375 C112.542,-27.537 111.862,-26.857 111.024,-26.857 C110.185,-26.857 109.505,-27.537 109.505,-28.375" fill="#00B885"/>
    <path d="M123.812,-19.407 C124.651,-19.407 125.331,-18.727 125.331,-17.889 C125.331,-17.051 124.651,-16.371 123.812,-16.371 C122.974,-16.371 122.294,-17.051 122.294,-17.889 C122.294,-18.727 122.974,-19.407 123.812,-19.407" fill="#00B885"/>
    <path d="M123.812,-14.275 C124.651,-14.275 125.331,-13.595 125.331,-12.756 C125.331,-11.918 124.651,-11.238 123.812,-11.238 C122.974,-11.238 122.294,-11.918 122.294,-12.756 C122.294,-13.595 122.974,-14.275 123.812,-14.275" fill="#00B885"/>
    <path d="M123.812,-9.142 C124.651,-9.142 125.331,-8.462 125.331,-7.624 C125.331,-6.786 124.651,-6.106 123.812,-6.106 C122.974,-6.106 122.294,-6.786 122.294,-7.624 C122.294,-8.462 122.974,-9.142 123.812,-9.142" fill="#00B885"/>
    <path d="M615.633,172.205 C615.633,173.044 614.953,173.724 614.114,173.724 C613.277,173.724 612.597,173.044 612.597,172.205 C612.597,171.367 613.277,170.687 614.114,170.687 C614.953,170.687 615.633,171.367 615.633,172.205" fill="#00B885"/>
    <path d="M610.5,172.205 C610.5,173.044 609.82,173.724 608.981,173.724 C608.144,173.724 607.464,173.044 607.464,172.205 C607.464,171.367 608.144,170.687 608.981,170.687 C609.82,170.687 610.5,171.367 610.5,172.205" fill="#00B885"/>
    <path d="M630.962,114.041 C630.962,114.88 630.282,115.56 629.443,115.56 C628.605,115.56 627.925,114.88 627.925,114.041 C627.925,113.203 628.605,112.523 629.443,112.523 C630.282,112.523 630.962,113.203 630.962,114.041" fill="#00B885"/>
    <path d="M625.829,114.041 C625.829,114.88 625.149,115.56 624.31,115.56 C623.473,115.56 622.793,114.88 622.793,114.041 C622.793,113.203 623.473,112.523 624.31,112.523 C625.149,112.523 625.829,113.203 625.829,114.041" fill="#00B885"/>
    <path d="M620.696,114.041 C620.696,114.88 620.016,115.56 619.178,115.56 C618.34,115.56 617.66,114.88 617.66,114.041 C617.66,113.203 618.34,112.523 619.178,112.523 C620.016,112.523 620.696,113.203 620.696,114.041" fill="#00B885"/>
    <path d="M686.809,-24.137 C687.648,-24.137 688.328,-23.457 688.328,-22.619 C688.328,-21.781 687.648,-21.101 686.809,-21.101 C685.971,-21.101 685.291,-21.781 685.291,-22.619 C685.291,-23.457 685.971,-24.137 686.809,-24.137" fill="#00B885"/>
    <path d="M686.809,-19.004 C687.648,-19.004 688.328,-18.324 688.328,-17.485 C688.328,-16.647 687.648,-15.967 686.809,-15.967 C685.971,-15.967 685.291,-16.647 685.291,-17.485 C685.291,-18.324 685.971,-19.004 686.809,-19.004" fill="#00B885"/>
    <path d="M686.809,-13.872 C687.648,-13.872 688.328,-13.192 688.328,-12.354 C688.328,-11.516 687.648,-10.836 686.809,-10.836 C685.971,-10.836 685.291,-11.516 685.291,-12.354 C685.291,-13.192 685.971,-13.872 686.809,-13.872" fill="#00B885"/>
    <path d="M716.536,51.701 C717.375,51.701 718.055,52.381 718.055,53.22 C718.055,54.057 717.375,54.737 716.536,54.737 C715.697,54.737 715.017,54.057 715.017,53.22 C715.017,52.381 715.697,51.701 716.536,51.701" fill="#00B885"/>
    <path d="M716.536,56.834 C717.375,56.834 718.055,57.514 718.055,58.353 C718.055,59.19 717.375,59.87 716.536,59.87 C715.697,59.87 715.017,59.19 715.017,58.353 C715.017,57.514 715.697,56.834 716.536,56.834" fill="#00B885"/>
    <path d="M716.536,61.967 C717.375,61.967 718.055,62.647 718.055,63.485 C718.055,64.323 717.375,65.003 716.536,65.003 C715.697,65.003 715.017,64.323 715.017,63.485 C715.017,62.647 715.697,61.967 716.536,61.967" fill="#00B885"/>
    <path d="M37.779,49.557 C38.617,49.557 39.297,50.237 39.297,51.075 C39.297,51.913 38.617,52.594 37.779,52.594 C36.94,52.594 36.26,51.913 36.26,51.075 C36.26,50.237 36.94,49.557 37.779,49.557" fill="#00B885"/>
    <path d="M37.779,54.689 C38.617,54.689 39.297,55.369 39.297,56.207 C39.297,57.045 38.617,57.725 37.779,57.725 C36.94,57.725 36.26,57.045 36.26,56.207 C36.26,55.369 36.94,54.689 37.779,54.689" fill="#00B885"/>
    <path d="M37.779,59.822 C38.617,59.822 39.297,60.502 39.297,61.34 C39.297,62.178 38.617,62.859 37.779,62.859 C36.94,62.859 36.26,62.178 36.26,61.34 C36.26,60.502 36.94,59.822 37.779,59.822" fill="#00B885"/>
    <path d="M70.1,2.967 C70.938,2.967 71.618,3.647 71.618,4.485 C71.618,5.323 70.938,6.003 70.1,6.003 C69.261,6.003 68.581,5.323 68.581,4.485 C68.581,3.647 69.261,2.967 70.1,2.967" fill="#00B885"/>
    <path d="M70.1,8.099 C70.938,8.099 71.618,8.779 71.618,9.618 C71.618,10.456 70.938,11.136 70.1,11.136 C69.261,11.136 68.581,10.456 68.581,9.618 C68.581,8.779 69.261,8.099 70.1,8.099" fill="#00B885"/>
    <path d="M70.1,13.232 C70.938,13.232 71.618,13.912 71.618,14.75 C71.618,15.588 70.938,16.268 70.1,16.268 C69.261,16.268 68.581,15.588 68.581,14.75 C68.581,13.912 69.261,13.232 70.1,13.232" fill="#00B885"/>
    <path d="M28.481,104.78 C28.481,102.797 30.089,101.188 32.072,101.188 C34.056,101.188 35.664,102.797 35.664,104.78 C35.664,106.763 34.056,108.372 32.072,108.372 C30.089,108.372 28.481,106.763 28.481,104.78" fill="#00B234"/>
    <path d="M46.522,104.78 L32.072,104.78 L32.072,118.843" fill-opacity="0" stroke="#00B885" stroke-width="1" stroke-linecap="round" stroke-linejoin="round"/>
    <path d="M46.522,104.728 C46.522,103.331 47.653,102.201 49.049,102.201 C50.445,102.201 51.577,103.331 51.577,104.728 C51.577,106.123 50.445,107.256 49.049,107.256 C47.653,107.256 46.522,106.123 46.522,104.728 z" fill-opacity="0" stroke="#00B885" stroke-width="1" stroke-linecap="round" stroke-linejoin="round"/>
    <path d="M29.545,121.371 C29.545,119.975 30.676,118.843 32.072,118.843 C33.468,118.843 34.6,119.975 34.6,121.371 C34.6,122.767 33.468,123.898 32.072,123.898 C30.676,123.898 29.545,122.767 29.545,121.371 z" fill-opacity="0" stroke="#00B885" stroke-width="1" stroke-linecap="round" stroke-linejoin="round"/>
    <path d="M31.558,104.728 L23.149,96.319 L23.149,88.968 L5.141,70.961" fill-opacity="0" stroke="#00B885" stroke-width="1" stroke-linecap="round" stroke-linejoin="round"/>
    <path d="M33.189,98.982 L28.839,94.632 L28.839,85.95 L12.181,69.291" fill-opacity="0" stroke="#00B885" stroke-width="1" stroke-linecap="round" stroke-linejoin="round"/>
    <path d="M721.583,-102.602 L725.933,-98.252 L725.933,-89.569 L742.591,-72.911" fill-opacity="0" stroke="#00B885" stroke-width="1" stroke-linecap="round" stroke-linejoin="round"/>
    <path d="M622.489,60.558 L636.939,60.558 L636.939,46.495" fill-opacity="0" stroke="#00B885" stroke-width="1" stroke-linecap="round" stroke-linejoin="round"/>
    <path d="M626.839,21.209 L641.288,21.209 L641.288,7.146" fill-opacity="0" stroke="#00B885" stroke-width="1" stroke-linecap="round" stroke-linejoin="round"/>
    <path d="M673.648,28.24 L688.097,28.24 L688.097,14.177" fill-opacity="0" stroke="#00B885" stroke-width="1" stroke-linecap="round" stroke-linejoin="round"/>
    <path d="M708.266,-37.36 L722.715,-37.36 L722.715,-51.423" fill-opacity="0" stroke="#00B885" stroke-width="1" stroke-linecap="round" stroke-linejoin="round"/>
    <path d="M723.229,-37.308 L731.638,-28.899 L731.638,-21.549 L749.646,-3.541" fill-opacity="0" stroke="#00B885" stroke-width="1" stroke-linecap="round" stroke-linejoin="round"/>
    <path d="M721.599,-31.563 L725.949,-27.213 L725.949,-18.53 L742.607,-1.872" fill-opacity="0" stroke="#00B885" stroke-width="1" stroke-linecap="round" stroke-linejoin="round"/>
    <path d="M743.308,203.038 L683.774,143.504 L664.642,143.504 L649.243,128.104" fill-opacity="0" stroke="#00B885" stroke-width="1" stroke-linecap="round" stroke-linejoin="round"/>
    <path d="M743.308,190.807 L690.424,137.923 L690.424,114.041 L636.94,60.558" fill-opacity="0" stroke="#00B885" stroke-width="1" stroke-linecap="round" stroke-linejoin="round"/>
    <path d="M743.308,141.68 L679.119,77.491 L679.119,59.038 L641.288,21.209" fill-opacity="0" stroke="#00B885" stroke-width="1" stroke-linecap="round" stroke-linejoin="round"/>
    <path d="M746.642,106.038 L725.642,85.038 L712.642,85.038 L698.142,70.538" fill-opacity="0" stroke="#00B885" stroke-width="1" stroke-linecap="round" stroke-linejoin="round"/>
    <path d="M744.975,70.538 L720.228,45.792 L705.642,45.792 L688.098,28.248" fill-opacity="0" stroke="#00B885" stroke-width="1" stroke-linecap="round" stroke-linejoin="round"/>
    <path d="M715.315,38.872 L708.266,38.872 L691.451,22.057 L691.451,5.872 L703.383,5.872 L713.011,15.501 L713.011,28.248 L698.099,13.335" fill-opacity="0" stroke="#00DB99" stroke-width="0.5" stroke-linecap="round" stroke-linejoin="round"/>
    <path d="M82.413,-36.328 C82.413,-35.759 81.952,-35.298 81.383,-35.298 C80.814,-35.298 80.353,-35.759 80.353,-36.328 C80.353,-36.897 80.814,-37.358 81.383,-37.358 C81.952,-37.358 82.413,-36.897 82.413,-36.328" fill="#00913B"/>
    <path d="M86.523,-36.328 C86.523,-35.759 86.062,-35.298 85.493,-35.298 C84.924,-35.298 84.463,-35.759 84.463,-36.328 C84.463,-36.897 84.924,-37.358 85.493,-37.358 C86.062,-37.358 86.523,-36.897 86.523,-36.328" fill="#00913B"/>
    <path d="M90.633,-36.328 C90.633,-35.759 90.172,-35.298 89.603,-35.298 C89.034,-35.298 88.573,-35.759 88.573,-36.328 C88.573,-36.897 89.034,-37.358 89.603,-37.358 C90.172,-37.358 90.633,-36.897 90.633,-36.328" fill="#00913B"/>
    <path d="M94.744,-36.328 C94.744,-35.759 94.283,-35.298 93.714,-35.298 C93.145,-35.298 92.684,-35.759 92.684,-36.328 C92.684,-36.897 93.145,-37.358 93.714,-37.358 C94.283,-37.358 94.744,-36.897 94.744,-36.328" fill="#00913B"/>
    <path d="M98.854,-36.328 C98.854,-35.759 98.392,-35.298 97.823,-35.298 C97.254,-35.298 96.793,-35.759 96.793,-36.328 C96.793,-36.897 97.254,-37.358 97.823,-37.358 C98.392,-37.358 98.854,-36.897 98.854,-36.328" fill="#00913B"/>
    <path d="M102.964,-36.328 C102.964,-35.759 102.503,-35.298 101.934,-35.298 C101.365,-35.298 100.904,-35.759 100.904,-36.328 C100.904,-36.897 101.365,-37.358 101.934,-37.358 C102.503,-37.358 102.964,-36.897 102.964,-36.328" fill="#00913B"/>
    <path d="M107.074,-36.328 C107.074,-35.759 106.613,-35.298 106.044,-35.298 C105.475,-35.298 105.014,-35.759 105.014,-36.328 C105.014,-36.897 105.475,-37.358 106.044,-37.358 C106.613,-37.358 107.074,-36.897 107.074,-36.328" fill="#00913B"/>
    <path d="M111.184,-36.328 C111.184,-35.759 110.723,-35.298 110.154,-35.298 C109.585,-35.298 109.124,-35.759 109.124,-36.328 C109.124,-36.897 109.585,-37.358 110.154,-37.358 C110.723,-37.358 111.184,-36.897 111.184,-36.328" fill="#00913B"/>
    <path d="M655.31,126.987 C655.31,127.555 654.849,128.017 654.281,128.017 C653.711,128.017 653.25,127.555 653.25,126.987 C653.25,126.418 653.711,125.957 654.281,125.957 C654.849,125.957 655.31,126.418 655.31,126.987" fill="#00913B"/>
    <path d="M659.42,126.987 C659.42,127.555 658.959,128.017 658.391,128.017 C657.821,128.017 657.36,127.555 657.36,126.987 C657.36,126.418 657.821,125.957 658.391,125.957 C658.959,125.957 659.42,126.418 659.42,126.987" fill="#00913B"/>
    <path d="M663.53,126.987 C663.53,127.555 663.069,128.017 662.5,128.017 C661.931,128.017 661.47,127.555 661.47,126.987 C661.47,126.418 661.931,125.957 662.5,125.957 C663.069,125.957 663.53,126.418 663.53,126.987" fill="#00913B"/>
    <path d="M667.641,126.987 C667.641,127.555 667.18,128.017 666.611,128.017 C666.042,128.017 665.58,127.555 665.58,126.987 C665.58,126.418 666.042,125.957 666.611,125.957 C667.18,125.957 667.641,126.418 667.641,126.987" fill="#00913B"/>
    <path d="M671.751,126.987 C671.751,127.555 671.29,128.017 670.721,128.017 C670.151,128.017 669.69,127.555 669.69,126.987 C669.69,126.418 670.151,125.957 670.721,125.957 C671.29,125.957 671.751,126.418 671.751,126.987" fill="#00913B"/>
    <path d="M675.86,126.987 C675.86,127.555 675.399,128.017 674.831,128.017 C674.261,128.017 673.8,127.555 673.8,126.987 C673.8,126.418 674.261,125.957 674.831,125.957 C675.399,125.957 675.86,126.418 675.86,126.987" fill="#00913B"/>
    <path d="M679.971,126.987 C679.971,127.555 679.51,128.017 678.941,128.017 C678.372,128.017 677.911,127.555 677.911,126.987 C677.911,126.418 678.372,125.957 678.941,125.957 C679.51,125.957 679.971,126.418 679.971,126.987" fill="#00913B"/>
    <path d="M684.081,126.987 C684.081,127.555 683.62,128.017 683.051,128.017 C682.482,128.017 682.021,127.555 682.021,126.987 C682.021,126.418 682.482,125.957 683.051,125.957 C683.62,125.957 684.081,126.418 684.081,126.987" fill="#00913B"/>
    <path d="M713.271,121.189 C712.87,121.59 712.216,121.59 711.815,121.189 C711.412,120.786 711.412,120.133 711.815,119.732 C712.216,119.329 712.87,119.329 713.271,119.732 C713.674,120.133 713.674,120.786 713.271,121.189" fill="#00913B"/>
    <path d="M716.178,124.095 C715.776,124.497 715.123,124.497 714.721,124.095 C714.32,123.693 714.32,123.04 714.721,122.638 C715.123,122.236 715.776,122.236 716.178,122.638 C716.58,123.04 716.58,123.693 716.178,124.095" fill="#00913B"/>
    <path d="M719.084,127.001 C718.682,127.403 718.029,127.403 717.627,127.001 C717.226,126.599 717.226,125.946 717.627,125.544 C718.029,125.142 718.682,125.142 719.084,125.544 C719.486,125.946 719.486,126.599 719.084,127.001" fill="#00913B"/>
    <path d="M721.99,129.907 C721.588,130.309 720.935,130.309 720.534,129.907 C720.132,129.505 720.132,128.852 720.534,128.45 C720.935,128.048 721.588,128.048 721.99,128.45 C722.392,128.852 722.392,129.505 721.99,129.907" fill="#00913B"/>
    <path d="M724.896,132.814 C724.495,133.215 723.841,133.215 723.44,132.814 C723.039,132.411 723.039,131.758 723.44,131.357 C723.841,130.954 724.495,130.954 724.896,131.357 C725.299,131.758 725.299,132.411 724.896,132.814" fill="#00913B"/>
    <path d="M727.803,135.72 C727.401,136.122 726.748,136.122 726.347,135.72 C725.945,135.318 725.945,134.665 726.347,134.263 C726.748,133.861 727.401,133.861 727.803,134.263 C728.205,134.665 728.205,135.318 727.803,135.72" fill="#00913B"/>
    <path d="M730.709,138.626 C730.307,139.028 729.655,139.028 729.253,138.626 C728.851,138.224 728.851,137.571 729.253,137.169 C729.655,136.767 730.307,136.767 730.709,137.169 C731.111,137.571 731.111,138.224 730.709,138.626" fill="#00913B"/>
    <path d="M733.615,141.532 C733.213,141.934 732.561,141.934 732.159,141.532 C731.757,141.13 731.757,140.477 732.159,140.075 C732.561,139.674 733.213,139.674 733.615,140.075 C734.017,140.477 734.017,141.13 733.615,141.532" fill="#00913B"/>
    <path d="M634.372,74.595 C633.97,74.996 633.317,74.996 632.916,74.595 C632.514,74.193 632.514,73.54 632.916,73.138 C633.317,72.736 633.97,72.736 634.372,73.138 C634.774,73.54 634.774,74.193 634.372,74.595" fill="#00913B"/>
    <path d="M637.278,77.501 C636.876,77.902 636.223,77.902 635.822,77.501 C635.42,77.099 635.42,76.446 635.822,76.044 C636.223,75.642 636.876,75.642 637.278,76.044 C637.68,76.446 637.68,77.099 637.278,77.501" fill="#00913B"/>
    <path d="M640.185,80.407 C639.783,80.809 639.131,80.809 638.729,80.407 C638.327,80.005 638.327,79.352 638.729,78.95 C639.131,78.548 639.783,78.548 640.185,78.95 C640.587,79.352 640.587,80.005 640.185,80.407" fill="#00913B"/>
    <path d="M643.091,83.314 C642.689,83.715 642.037,83.715 641.635,83.314 C641.233,82.911 641.233,82.258 641.635,81.857 C642.037,81.454 642.689,81.454 643.091,81.857 C643.493,82.258 643.493,82.911 643.091,83.314" fill="#00913B"/>
    <path d="M645.997,86.22 C645.595,86.622 644.943,86.622 644.541,86.22 C644.139,85.818 644.139,85.165 644.541,84.763 C644.943,84.361 645.595,84.361 645.997,84.763 C646.399,85.165 646.399,85.818 645.997,86.22" fill="#00913B"/>
    <path d="M648.903,89.126 C648.501,89.528 647.849,89.528 647.447,89.126 C647.045,88.724 647.045,88.071 647.447,87.669 C647.849,87.267 648.501,87.267 648.903,87.669 C649.305,88.071 649.305,88.724 648.903,89.126" fill="#00913B"/>
    <path d="M651.81,92.032 C651.409,92.434 650.756,92.434 650.354,92.032 C649.952,91.63 649.952,90.977 650.354,90.575 C650.756,90.173 651.409,90.173 651.81,90.575 C652.212,90.977 652.212,91.63 651.81,92.032" fill="#00913B"/>
    <path d="M654.716,94.939 C654.315,95.34 653.662,95.34 653.26,94.939 C652.858,94.536 652.858,93.883 653.26,93.482 C653.662,93.079 654.315,93.079 654.716,93.482 C655.118,93.883 655.118,94.536 654.716,94.939" fill="#00913B"/>
    <path d="M649.977,39.594 C649.575,39.996 648.922,39.996 648.521,39.594 C648.119,39.192 648.119,38.54 648.521,38.138 C648.922,37.736 649.575,37.736 649.977,38.138 C650.379,38.54 650.379,39.192 649.977,39.594" fill="#00913B"/>
    <path d="M652.883,42.5 C652.481,42.902 651.828,42.902 651.427,42.5 C651.025,42.099 651.025,41.446 651.427,41.044 C651.828,40.642 652.481,40.642 652.883,41.044 C653.285,41.446 653.285,42.099 652.883,42.5" fill="#00913B"/>
    <path d="M655.789,45.406 C655.387,45.808 654.734,45.808 654.333,45.406 C653.931,45.005 653.931,44.352 654.333,43.95 C654.734,43.548 655.387,43.548 655.789,43.95 C656.191,44.352 656.191,45.005 655.789,45.406" fill="#00913B"/>
    <path d="M658.695,48.312 C658.293,48.714 657.641,48.714 657.239,48.312 C656.837,47.911 656.837,47.258 657.239,46.856 C657.641,46.454 658.293,46.454 658.695,46.856 C659.097,47.258 659.097,47.911 658.695,48.312" fill="#00913B"/>
    <path d="M661.602,51.22 C661.2,51.621 660.548,51.621 660.146,51.22 C659.744,50.818 659.744,50.165 660.146,49.763 C660.548,49.361 661.2,49.361 661.602,49.763 C662.004,50.165 662.004,50.818 661.602,51.22" fill="#00913B"/>
    <path d="M664.508,54.126 C664.106,54.527 663.454,54.527 663.052,54.126 C662.65,53.724 662.65,53.071 663.052,52.669 C663.454,52.267 664.106,52.267 664.508,52.669 C664.91,53.071 664.91,53.724 664.508,54.126" fill="#00913B"/>
    <path d="M667.414,57.032 C667.012,57.434 666.36,57.434 665.958,57.032 C665.556,56.63 665.556,55.977 665.958,55.575 C666.36,55.173 667.012,55.173 667.414,55.575 C667.816,55.977 667.816,56.63 667.414,57.032" fill="#00913B"/>
    <path d="M670.32,59.939 C669.919,60.34 669.266,60.34 668.864,59.939 C668.462,59.536 668.462,58.883 668.864,58.482 C669.266,58.079 669.919,58.079 670.32,58.482 C670.722,58.883 670.722,59.536 670.32,59.939" fill="#00913B"/>
    <path d="M684.304,35.234 C683.902,35.636 683.249,35.636 682.847,35.234 C682.445,34.832 682.445,34.18 682.847,33.778 C683.249,33.376 683.902,33.376 684.304,33.778 C684.706,34.18 684.706,34.832 684.304,35.234" fill="#00913B"/>
    <path d="M687.21,38.141 C686.808,38.543 686.155,38.543 685.753,38.141 C685.351,37.739 685.351,37.087 685.753,36.685 C686.155,36.283 686.808,36.283 687.21,36.685 C687.612,37.087 687.612,37.739 687.21,38.141" fill="#00913B"/>
    <path d="M690.116,41.047 C689.714,41.449 689.061,41.449 688.659,41.047 C688.257,40.645 688.257,39.993 688.659,39.591 C689.061,39.189 689.714,39.189 690.116,39.591 C690.518,39.993 690.518,40.645 690.116,41.047" fill="#00913B"/>
    <path d="M693.023,43.953 C692.62,44.355 691.967,44.355 691.565,43.953 C691.164,43.552 691.164,42.899 691.565,42.497 C691.967,42.095 692.62,42.095 693.023,42.497 C693.424,42.899 693.424,43.552 693.023,43.953" fill="#00913B"/>
    <path d="M695.929,46.859 C695.527,47.261 694.874,47.261 694.472,46.859 C694.07,46.458 694.07,45.805 694.472,45.403 C694.874,45.001 695.527,45.001 695.929,45.403 C696.331,45.805 696.331,46.458 695.929,46.859" fill="#00913B"/>
    <path d="M698.835,49.767 C698.433,50.168 697.78,50.168 697.378,49.767 C696.977,49.365 696.977,48.712 697.378,48.31 C697.78,47.908 698.433,47.908 698.835,48.31 C699.237,48.712 699.237,49.365 698.835,49.767" fill="#00913B"/>
    <path d="M701.741,52.673 C701.339,53.074 700.686,53.074 700.284,52.673 C699.883,52.271 699.883,51.618 700.284,51.216 C700.686,50.814 701.339,50.814 701.741,51.216 C702.143,51.618 702.143,52.271 701.741,52.673" fill="#00913B"/>
    <path d="M704.648,55.579 C704.245,55.98 703.593,55.98 703.192,55.579 C702.789,55.177 702.789,54.524 703.192,54.122 C703.593,53.72 704.245,53.72 704.648,54.122 C705.049,54.524 705.049,55.177 704.648,55.579" fill="#00913B"/>
    <path d="M712.849,-20.279 C712.447,-19.877 711.794,-19.877 711.392,-20.279 C710.99,-20.681 710.99,-21.334 711.392,-21.736 C711.794,-22.138 712.447,-22.138 712.849,-21.736 C713.251,-21.334 713.251,-20.681 712.849,-20.279" fill="#00913B"/>
    <path d="M715.755,-17.373 C715.353,-16.971 714.7,-16.971 714.298,-17.373 C713.896,-17.775 713.896,-18.428 714.298,-18.83 C714.7,-19.232 715.353,-19.232 715.755,-18.83 C716.157,-18.428 716.157,-17.775 715.755,-17.373" fill="#00913B"/>
    <path d="M718.661,-14.466 C718.259,-14.064 717.606,-14.064 717.204,-14.466 C716.802,-14.868 716.802,-15.521 717.204,-15.923 C717.606,-16.325 718.259,-16.325 718.661,-15.923 C719.063,-15.521 719.063,-14.868 718.661,-14.466" fill="#00913B"/>
    <path d="M721.567,-11.56 C721.165,-11.158 720.512,-11.158 720.11,-11.56 C719.708,-11.962 719.708,-12.614 720.11,-13.017 C720.512,-13.419 721.165,-13.419 721.567,-13.017 C721.969,-12.614 721.969,-11.962 721.567,-11.56" fill="#00913B"/>
    <path d="M724.474,-8.654 C724.072,-8.252 723.419,-8.252 723.017,-8.654 C722.615,-9.056 722.615,-9.708 723.017,-10.111 C723.419,-10.513 724.072,-10.513 724.474,-10.111 C724.876,-9.708 724.876,-9.056 724.474,-8.654" fill="#00913B"/>
    <path d="M727.38,-5.748 C726.978,-5.346 726.325,-5.346 725.923,-5.748 C725.521,-6.15 725.521,-6.802 725.923,-7.205 C726.325,-7.607 726.978,-7.607 727.38,-7.205 C727.782,-6.802 727.782,-6.15 727.38,-5.748" fill="#00913B"/>
    <path d="M730.286,-2.841 C729.884,-2.439 729.231,-2.439 728.829,-2.841 C728.427,-3.243 728.427,-3.895 728.829,-4.298 C729.231,-4.7 729.884,-4.7 730.286,-4.298 C730.688,-3.895 730.688,-3.243 730.286,-2.841" fill="#00913B"/>
    <path d="M733.192,0.065 C732.79,0.467 732.137,0.467 731.735,0.065 C731.333,-0.337 731.333,-0.989 731.735,-1.392 C732.137,-1.794 732.79,-1.794 733.192,-1.392 C733.594,-0.989 733.594,-0.337 733.192,0.065" fill="#00913B"/>
    <path d="M710.365,-84.48 C709.963,-84.078 709.31,-84.078 708.908,-84.48 C708.506,-84.882 708.506,-85.534 708.908,-85.937 C709.31,-86.339 709.963,-86.339 710.365,-85.937 C710.767,-85.534 710.767,-84.882 710.365,-84.48" fill="#00913B"/>
    <path d="M713.271,-81.574 C712.87,-81.172 712.216,-81.172 711.815,-81.574 C711.412,-81.976 711.412,-82.628 711.815,-83.031 C712.216,-83.433 712.87,-83.433 713.271,-83.031 C713.674,-82.628 713.674,-81.976 713.271,-81.574" fill="#00913B"/>
    <path d="M716.178,-78.668 C715.776,-78.266 715.123,-78.266 714.721,-78.668 C714.32,-79.07 714.32,-79.722 714.721,-80.125 C715.123,-80.527 715.776,-80.527 716.178,-80.125 C716.58,-79.722 716.58,-79.07 716.178,-78.668" fill="#00913B"/>
    <path d="M719.084,-75.761 C718.682,-75.359 718.029,-75.359 717.627,-75.761 C717.226,-76.163 717.226,-76.815 717.627,-77.218 C718.029,-77.62 718.682,-77.62 719.084,-77.218 C719.486,-76.815 719.486,-76.163 719.084,-75.761" fill="#00913B"/>
    <path d="M721.99,-72.855 C721.588,-72.453 720.935,-72.453 720.534,-72.855 C720.132,-73.257 720.132,-73.909 720.534,-74.312 C720.935,-74.714 721.588,-74.714 721.99,-74.312 C722.392,-73.909 722.392,-73.257 721.99,-72.855" fill="#00913B"/>
    <path d="M724.896,-69.949 C724.495,-69.547 723.841,-69.547 723.44,-69.949 C723.039,-70.351 723.039,-71.003 723.44,-71.406 C723.841,-71.808 724.495,-71.808 724.896,-71.406 C725.299,-71.003 725.299,-70.351 724.896,-69.949" fill="#00913B"/>
    <path d="M727.803,-67.043 C727.401,-66.641 726.748,-66.641 726.347,-67.043 C725.945,-67.445 725.945,-68.097 726.347,-68.5 C726.748,-68.902 727.401,-68.902 727.803,-68.5 C728.205,-68.097 728.205,-67.445 727.803,-67.043" fill="#00913B"/>
    <path d="M730.709,-64.136 C730.307,-63.734 729.655,-63.734 729.253,-64.136 C728.851,-64.538 728.851,-65.191 729.253,-65.593 C729.655,-65.995 730.307,-65.995 730.709,-65.593 C731.111,-65.191 731.111,-64.538 730.709,-64.136" fill="#00913B"/>
    <path d="M20.101,64.893 C19.699,65.295 19.047,65.295 18.644,64.893 C18.242,64.491 18.242,63.839 18.644,63.436 C19.047,63.034 19.699,63.034 20.101,63.436 C20.503,63.839 20.503,64.491 20.101,64.893" fill="#00913B"/>
    <path d="M23.007,67.799 C22.605,68.201 21.953,68.201 21.55,67.799 C21.148,67.397 21.148,66.745 21.55,66.342 C21.953,65.94 22.605,65.94 23.007,66.342 C23.409,66.745 23.409,67.397 23.007,67.799" fill="#00913B"/>
    <path d="M25.914,70.706 C25.512,71.108 24.86,71.108 24.457,70.706 C24.055,70.304 24.055,69.652 24.457,69.249 C24.86,68.847 25.512,68.847 25.914,69.249 C26.316,69.652 26.316,70.304 25.914,70.706" fill="#00913B"/>
    <path d="M28.82,73.612 C28.418,74.014 27.766,74.014 27.363,73.612 C26.961,73.21 26.961,72.558 27.363,72.155 C27.766,71.753 28.418,71.753 28.82,72.155 C29.222,72.558 29.222,73.21 28.82,73.612" fill="#00913B"/>
    <path d="M31.726,76.518 C31.324,76.92 30.672,76.92 30.269,76.518 C29.867,76.116 29.867,75.464 30.269,75.061 C30.672,74.659 31.324,74.659 31.726,75.061 C32.128,75.464 32.128,76.116 31.726,76.518" fill="#00913B"/>
    <path d="M34.632,79.424 C34.23,79.826 33.578,79.826 33.175,79.424 C32.773,79.022 32.773,78.37 33.175,77.967 C33.578,77.565 34.23,77.565 34.632,77.967 C35.034,78.37 35.034,79.022 34.632,79.424" fill="#00913B"/>
    <path d="M37.539,82.331 C37.137,82.733 36.485,82.733 36.082,82.331 C35.68,81.929 35.68,81.276 36.082,80.874 C36.485,80.472 37.137,80.472 37.539,80.874 C37.941,81.276 37.941,81.929 37.539,82.331" fill="#00913B"/>
    <path d="M40.445,85.237 C40.043,85.639 39.39,85.639 38.988,85.237 C38.586,84.835 38.586,84.182 38.988,83.78 C39.39,83.378 40.043,83.378 40.445,83.78 C40.847,84.182 40.847,84.835 40.445,85.237" fill="#00913B"/>
    <path d="M18.648,-16.573 C18.246,-16.171 17.593,-16.171 17.191,-16.573 C16.789,-16.975 16.789,-17.628 17.191,-18.03 C17.593,-18.432 18.246,-18.432 18.648,-18.03 C19.05,-17.628 19.05,-16.975 18.648,-16.573" fill="#00913B"/>
    <path d="M21.554,-13.667 C21.152,-13.265 20.5,-13.265 20.097,-13.667 C19.695,-14.069 19.695,-14.721 20.097,-15.124 C20.5,-15.526 21.152,-15.526 21.554,-15.124 C21.956,-14.721 21.956,-14.069 21.554,-13.667" fill="#00913B"/>
    <path d="M24.46,-10.761 C24.058,-10.359 23.406,-10.359 23.003,-10.761 C22.601,-11.163 22.601,-11.815 23.003,-12.218 C23.406,-12.62 24.058,-12.62 24.46,-12.218 C24.862,-11.815 24.862,-11.163 24.46,-10.761" fill="#00913B"/>
    <path d="M27.367,-7.855 C26.965,-7.453 26.313,-7.453 25.91,-7.855 C25.508,-8.257 25.508,-8.909 25.91,-9.312 C26.313,-9.714 26.965,-9.714 27.367,-9.312 C27.769,-8.909 27.769,-8.257 27.367,-7.855" fill="#00913B"/>
    <path d="M30.273,-4.948 C29.871,-4.546 29.219,-4.546 28.816,-4.948 C28.414,-5.35 28.414,-6.002 28.816,-6.405 C29.219,-6.807 29.871,-6.807 30.273,-6.405 C30.675,-6.002 30.675,-5.35 30.273,-4.948" fill="#00913B"/>
    <path d="M33.179,-2.042 C32.777,-1.64 32.125,-1.64 31.722,-2.042 C31.32,-2.444 31.32,-3.096 31.722,-3.499 C32.125,-3.901 32.777,-3.901 33.179,-3.499 C33.581,-3.096 33.581,-2.444 33.179,-2.042" fill="#00913B"/>
    <path d="M36.085,0.864 C35.683,1.266 35.031,1.266 34.628,0.864 C34.226,0.462 34.226,-0.19 34.628,-0.593 C35.031,-0.995 35.683,-0.995 36.085,-0.593 C36.487,-0.19 36.487,0.462 36.085,0.864" fill="#00913B"/>
    <path d="M38.992,3.77 C38.59,4.172 37.938,4.172 37.535,3.77 C37.133,3.368 37.133,2.716 37.535,2.313 C37.938,1.911 38.59,1.911 38.992,2.313 C39.394,2.716 39.394,3.368 38.992,3.77" fill="#00913B"/>
    <path d="M45.971,76.845 C45.569,77.247 44.916,77.247 44.514,76.845 C44.112,76.443 44.112,75.79 44.514,75.388 C44.916,74.986 45.569,74.986 45.971,75.388 C46.373,75.79 46.373,76.443 45.971,76.845" fill="#00913B"/>
    <path d="M48.877,79.751 C48.475,80.153 47.822,80.153 47.42,79.751 C47.018,79.349 47.018,78.697 47.42,78.294 C47.822,77.892 48.475,77.892 48.877,78.294 C49.279,78.697 49.279,79.349 48.877,79.751" fill="#00913B"/>
    <path d="M51.783,82.657 C51.381,83.059 50.728,83.059 50.326,82.657 C49.924,82.255 49.924,81.603 50.326,81.2 C50.728,80.798 51.381,80.798 51.783,81.2 C52.185,81.603 52.185,82.255 51.783,82.657" fill="#00913B"/>
    <path d="M54.689,85.563 C54.287,85.965 53.636,85.965 53.232,85.563 C52.831,85.161 52.831,84.508 53.232,84.106 C53.636,83.704 54.287,83.704 54.689,84.106 C55.091,84.508 55.091,85.161 54.689,85.563" fill="#00913B"/>
    <path d="M57.596,88.47 C57.194,88.872 56.542,88.872 56.139,88.47 C55.737,88.068 55.737,87.415 56.139,87.013 C56.542,86.612 57.194,86.612 57.596,87.013 C57.998,87.415 57.998,88.068 57.596,88.47" fill="#00913B"/>
    <path d="M60.502,91.376 C60.1,91.778 59.448,91.778 59.045,91.376 C58.643,90.974 58.643,90.321 59.045,89.92 C59.448,89.518 60.1,89.518 60.502,89.92 C60.904,90.321 60.904,90.974 60.502,91.376" fill="#00913B"/>
    <path d="M63.408,94.282 C63.006,94.684 62.354,94.684 61.951,94.282 C61.549,93.88 61.549,93.227 61.951,92.826 C62.354,92.424 63.006,92.424 63.408,92.826 C63.81,93.227 63.81,93.88 63.408,94.282" fill="#00913B"/>
    <path d="M66.314,97.188 C65.912,97.59 65.261,97.59 64.857,97.188 C64.456,96.786 64.456,96.134 64.857,95.732 C65.261,95.33 65.912,95.33 66.314,95.732 C66.716,96.134 66.716,96.786 66.314,97.188" fill="#00913B"/>
    <path d="M14.719,166.608 C14.317,167.01 13.664,167.01 13.262,166.608 C12.86,166.207 12.86,165.554 13.262,165.152 C13.664,164.75 14.317,164.75 14.719,165.152 C15.121,165.554 15.121,166.207 14.719,166.608" fill="#00913B"/>
    <path d="M17.625,169.516 C17.223,169.917 16.57,169.917 16.168,169.516 C15.766,169.114 15.766,168.461 16.168,168.059 C16.57,167.657 17.223,167.657 17.625,168.059 C18.027,168.461 18.027,169.114 17.625,169.516" fill="#00913B"/>
    <path d="M20.531,172.422 C20.129,172.823 19.476,172.823 19.074,172.422 C18.672,172.02 18.672,171.367 19.074,170.965 C19.476,170.563 20.129,170.563 20.531,170.965 C20.933,171.367 20.933,172.02 20.531,172.422" fill="#00913B"/>
    <path d="M23.437,175.328 C23.035,175.73 22.382,175.73 21.98,175.328 C21.578,174.926 21.578,174.273 21.98,173.871 C22.382,173.469 23.035,173.469 23.437,173.871 C23.839,174.273 23.839,174.926 23.437,175.328" fill="#00913B"/>
    <path d="M5.141,64.952 L4.949,70.346 L-0.445,70.538 L-16.627,54.356 L-16.434,48.963 L-11.041,48.77 L5.141,64.952 z" fill-opacity="0" stroke="#00CA3A" stroke-width="0.75"/>
    <path d="M-34.33,-28.376 L-10.942,-4.988 L-10.942,14.901 L6.005,31.848" fill-opacity="0" stroke="#00B885" stroke-width="1" stroke-linecap="round" stroke-linejoin="round"/>
    <path d="M7.005,67.119 C7.005,65.135 8.613,63.527 10.597,63.527 C12.58,63.527 14.188,65.135 14.188,67.119 C14.188,69.102 12.58,70.71 10.597,70.71 C8.613,70.71 7.005,69.102 7.005,67.119" fill="#00B234"/>
    <path d="M-55.029,-13.318 L-15.322,26.389 L-15.322,41.349 L8.065,64.736" fill-opacity="0" stroke="#00B885" stroke-width="1" stroke-linecap="round" stroke-linejoin="round"/>
  </g>
  <g id="DESIGNED_BY_FREEPIK">
    <path d="M113.296,46.735 L96.033,18.908 L99.102,17.653 L116.366,45.478 L113.296,46.735" fill="#F38C3E"/>
    <path d="M124.32,46.152 L108.568,7.876 L111.909,7.147 L127.661,45.422 L124.32,46.152" fill="#EB8B2D"/>
    <path d="M76.011,62.068 L76.093,58.877 L112.119,64.251 L112.038,67.442 L76.011,62.068" fill="#FC8D4A"/>
    <path d="M73.38,73.93 L73.222,70.71 L115.764,74.504 L115.922,77.723 L73.38,73.93" fill="#FC8D4A"/>
    <path d="M75.78,84.341 L75.85,81.147 L115.056,86.877 L114.986,90.071 L75.78,84.341" fill="#FF8E54"/>
    <path d="M79.646,94.084 L80.078,90.96 L107.927,97.578 L107.496,100.702 L79.646,94.084" fill="#FF8E54"/>
    <path d="M79.417,136.796 L67.304,108.799 L70.621,108.013 L82.733,136.009 L79.417,136.796" fill="#FF8F5D"/>
    <path d="M68.428,142.058 L57.179,106.755 L60.612,106.287 L71.861,141.589 L68.428,142.058" fill="#FF8F5D"/>
    <path d="M113.814,45.75 L96.935,18.545 L96.044,18.91 L113.308,46.736 L116.376,45.48 L115.991,44.859 L113.814,45.75" fill="#888B87"/>
    <path d="M124.836,45.167 L109.415,7.694 L108.579,7.878 L124.329,46.153 L127.672,45.425 L127.34,44.621 L124.836,45.167" fill="#888B87"/>
    <path d="M76.528,61.084 L76.583,58.949 L76.103,58.877 L76.022,62.07 L112.048,67.444 L112.075,66.386 L76.528,61.084" fill="#888B87"/>
    <path d="M73.898,72.946 L73.789,70.762 L73.232,70.712 L73.391,73.932 L115.933,77.726 L115.881,76.69 L73.898,72.946" fill="#888B87"/>
    <path d="M76.297,83.357 L76.343,81.22 L75.86,81.149 L75.79,84.343 L114.997,90.073 L115.02,89.015 L76.297,83.357" fill="#888B87"/>
    <path d="M80.163,93.099 L80.447,91.046 L80.089,90.96 L79.656,94.085 L107.506,100.704 L107.654,99.633 L80.163,93.099" fill="#888B87"/>
    <path d="M79.934,135.811 L68.16,108.599 L67.314,108.8 L79.427,136.797 L82.744,136.011 L82.404,135.225 L79.934,135.811" fill="#888B87"/>
    <path d="M68.945,141.074 L57.975,106.65 L57.189,106.757 L68.439,142.059 L71.872,141.589 L71.592,140.712 L68.945,141.074" fill="#888B87"/>
    <path d="M51.034,107.8 L52.13,101.612 C61.115,104.013 72.82,106.667 83.675,105.867 C98.909,104.743 114.546,93.039 112.628,78.043 C111.714,70.901 107.473,63.942 102.983,56.575 C96.936,46.653 90.683,36.394 92.624,25.127 C95.471,8.607 115.197,0.803 116.035,0.479 L119.62,6.488 C119.444,6.556 102.038,13.488 99.71,26.995 C98.148,36.057 103.493,44.826 109.152,54.111 C113.825,61.778 118.656,69.707 119.745,78.22 C122.101,96.642 103.462,110.975 85.259,112.317 C73.224,113.204 60.647,110.37 51.034,107.8" fill="#C2C842"/>
    <path d="M119.744,78.217 C118.654,69.704 113.823,61.774 109.15,54.107 C103.492,44.823 98.146,36.055 99.708,26.992 C102.036,13.485 119.443,6.553 119.618,6.485 L116.033,0.476 C116.007,0.487 115.958,0.505 115.893,0.531 L118.236,4.457 C118.061,4.526 100.653,11.458 98.326,24.964 C96.763,34.027 102.109,42.796 107.767,52.081 C112.44,59.747 117.271,67.676 118.361,76.191 C120.718,94.611 102.077,108.946 83.874,110.287 C72.521,111.123 60.689,108.649 51.314,106.208 L51.032,107.796 C60.646,110.367 73.222,113.201 85.257,112.314 C103.46,110.972 122.1,96.639 119.744,78.217" fill="#ECE748"/>
    <path d="M54.846,103.009 C63.83,105.409 75.535,108.063 86.39,107.264 C101.624,106.14 117.262,94.436 115.342,79.44 C114.429,72.297 110.187,65.338 105.698,57.971 C99.651,48.05 93.398,37.79 95.339,26.524 C97.765,12.445 112.444,4.7 117.248,2.518 L116.033,0.479 C115.195,0.803 95.469,8.607 92.622,25.127 C90.681,36.394 96.934,46.653 102.981,56.575 C107.471,63.942 111.712,70.901 112.626,78.043 C114.544,93.039 98.907,104.743 83.673,105.867 C72.818,106.667 61.113,104.013 52.128,101.612 L51.032,107.8 C51.948,108.044 52.899,108.292 53.865,108.537 L54.846,103.009" fill="#898E36"/>
    <path d="M59.745,146.655 L58.941,140.187 C59.701,140.203 77.894,140.442 85.184,125.659 C88.447,119.048 83.614,108.607 78.497,97.554 C72.036,83.597 65.355,69.165 72.955,58.463 C86.312,39.656 130.61,42.647 132.489,42.784 L132.94,49.235 C132.518,49.203 90.585,46.382 79.15,62.482 C73.381,70.603 79.317,83.423 85.056,95.821 C90.554,107.696 96.239,119.976 91.805,128.966 C82.867,147.087 60.685,146.681 59.745,146.655" fill="#35AE74"/>
    <path d="M85.049,95.827 C79.309,83.429 73.374,70.609 79.142,62.487 C90.578,46.386 132.511,49.209 132.932,49.24 L132.481,42.789 C132.236,42.772 131.248,42.705 129.713,42.644 L130.101,48.189 C129.68,48.159 87.747,45.335 76.311,61.436 C70.543,69.557 76.478,82.377 82.218,94.775 C87.715,106.651 93.401,118.931 88.967,127.92 C81.759,142.534 65.945,145.098 59.598,145.529 L59.738,146.661 C60.678,146.687 82.86,147.093 91.798,128.972 C96.232,119.982 90.546,107.702 85.049,95.827" fill="#5EB881"/>
    <path d="M74.048,61.259 C86.533,43.679 126.042,45.144 132.683,45.522 L132.491,42.785 C130.613,42.648 86.314,39.657 72.957,58.464 C67.248,66.503 69.598,76.647 73.859,87.113 C70.333,77.647 68.848,68.579 74.048,61.259" fill="#277C52"/>
    <path d="M85.059,95.822 C83.525,92.51 81.979,89.168 80.645,85.892 C82.181,90.045 84.177,94.356 86.149,98.616 C87.657,101.875 89.179,105.165 90.503,108.408 C88.967,104.27 87.003,100.021 85.059,95.822" fill="#277C52"/>
    <path d="M60.034,142.982 C60.794,142.999 78.987,143.238 86.277,128.456 C88.573,123.803 86.856,117.253 83.857,109.932 C86.139,116.117 87.185,121.61 85.187,125.661 C77.896,140.443 59.704,140.205 58.944,140.189 L59.748,146.657 C59.832,146.658 60.093,146.663 60.492,146.658 L60.034,142.982" fill="#277C52"/>
  </g>
</svg>
